<svg width="50" height="50" viewBox="0 0 50 50" fill="none" xmlns="http://www.w3.org/2000/svg">
<path d="M35 34H13C12.7 34 12.4 33.8 12.2 33.6C12 33.4 12 33 12.1 32.7L14 27.9L12.1 10H6V8H13C13.5 8 13.9 8.4 14 8.9L16 27.9C16 28.1 16 28.2 15.9 28.4L14.5 32H36L35 34Z" fill="#FCFCFC"/>
<path d="M15.2 29L14.8 27L38 22.2V14H14V12H39C39.6 12 40 12.4 40 13V23C40 23.5 39.7 23.9 39.2 24L15.2 29V29ZM36 40C33.8 40 32 38.2 32 36C32 33.8 33.8 32 36 32C38.2 32 40 33.8 40 36C40 38.2 38.2 40 36 40ZM36 34C34.9 34 34 34.9 34 36C34 37.1 34.9 38 36 38C37.1 38 38 37.1 38 36C38 34.9 37.1 34 36 34ZM12 40C9.8 40 8 38.2 8 36C8 33.8 9.8 32 12 32C14.2 32 16 33.8 16 36C16 38.2 14.2 40 12 40ZM12 34C10.9 34 10 34.9 10 36C10 37.1 10.9 38 12 38C13.1 38 14 37.1 14 36C14 34.9 13.1 34 12 34Z" fill="#FCFCFC"/>
</svg>
